<?xml version="1.0" encoding="UTF-8" standalone="no"?>
<!-- Created with Inkscape (http://www.inkscape.org/) -->

<svg
   width="100"
   height="80"
   viewBox="0 0 100 80"
   version="1.1"
   id="svg1"
   inkscape:version="1.4.4 (dcaf3e7d9e, 2026-05-05)"
   xml:space="preserve"
   sodipodi:docname="poweroff.svg"
   inkscape:export-filename="games.png"
   inkscape:export-xdpi="96"
   inkscape:export-ydpi="96"
   xmlns:inkscape="http://www.inkscape.org/namespaces/inkscape"
   xmlns:sodipodi="http://sodipodi.sourceforge.net/DTD/sodipodi-0.dtd"
   xmlns="http://www.w3.org/2000/svg"
   xmlns:svg="http://www.w3.org/2000/svg"><sodipodi:namedview
     id="namedview1"
     pagecolor="#3a3a3a"
     bordercolor="#a6a6a6"
     borderopacity="1"
     inkscape:showpageshadow="0"
     inkscape:pageopacity="0"
     inkscape:pagecheckerboard="1"
     inkscape:deskcolor="#1a1a1a"
     inkscape:document-units="px"
     guidecolor="#91a666"
     guideopacity="0.6"
     guidehicolor="#a66966"
     guidehiopacity="0.49803922"
     inkscape:zoom="2.8284271"
     inkscape:cx="185.61553"
     inkscape:cy="43.840621"
     inkscape:window-width="1432"
     inkscape:window-height="876"
     inkscape:window-x="0"
     inkscape:window-y="0"
     inkscape:window-maximized="1"
     inkscape:current-layer="layer1" /><defs
     id="defs1" /><g
     inkscape:label="Layer 1"
     inkscape:groupmode="layer"
     id="layer1"
     transform="translate(-301.59625)"><path
       style="fill:none;stroke:#1a1a1a;stroke-width:3;stroke-linecap:round;stroke-linejoin:round;stroke-dasharray:none;stroke-opacity:1"
       d="m 323.28375,66.750001 c -0.84485,-5.256701 -2.07264,-10.428303 -1.5,-16.000001 10.50336,-2.028904 14.17686,7.042423 0.875,9.062501"
       id="path21"
       sodipodi:nodetypes="ccc" /><path
       id="path22"
       style="fill:none;stroke:#1a1a1a;stroke-width:3;stroke-linecap:round;stroke-linejoin:round;stroke-opacity:1"
       d="m 339.00445,55.349609 c -4.95971,0.05432 -5.61137,7.129479 -0.88086,8.332032 5.96444,1.516233 7.75423,-8.407321 0.88086,-8.332032 z"
       sodipodi:nodetypes="sss" /><path
       style="fill:none;stroke:#1a1a1a;stroke-width:3;stroke-linecap:round;stroke-linejoin:round;stroke-dasharray:none;stroke-opacity:1"
       d="m 347.19,54.843751 c 0.32292,3.520833 1.4375,6.25 3.34375,8.1875 2.40496,-1.943263 3.18675,-4.272996 3.875,-6.625 1.09375,2.6875 2.4375,4.958333 4.03125,6.8125 1.82199,-2.896066 3.53355,-5.819738 3.71875,-9.125"
       id="path23"
       sodipodi:nodetypes="ccccc" /><path
       style="fill:none;stroke:#1a1a1a;stroke-width:3;stroke-linecap:round;stroke-linejoin:round;stroke-dasharray:none;stroke-opacity:1"
       d="m 372.6958,62.931198 c -7.41737,3.071484 -10.92168,-7.667631 -3.4532,-9.363477 6.04651,-1.372964 2.37573,5.87794 -2.88047,5.61394"
       id="path24"
       sodipodi:nodetypes="csc" /><path
       style="fill:none;stroke:#1a1a1a;stroke-width:3;stroke-linecap:round;stroke-linejoin:round;stroke-dasharray:none;stroke-opacity:1"
       d="m 382.815,55.031251 c -2.45488,-0.0973 -4.07888,0.199327 -5.53125,1.53125 l -0.3125,6.9375 v -8.09375"
       id="path25"
       sodipodi:nodetypes="cccc" /><path
       style="fill:none;stroke:#f96da0;stroke-width:2;stroke-linecap:round;stroke-linejoin:round;stroke-dasharray:none;stroke-opacity:1"
       d="m 326.93868,73.051859 c 17.59222,-4.87872 34.03085,-6.48893 49.31589,-4.83065 -9.40453,1.22049 -17.93766,0.89183 -28.9118,4.90275"
       id="path26"
       sodipodi:nodetypes="ccc" /><path
       style="fill:none;stroke:#f2cd4a;stroke-width:3;stroke-linecap:round;stroke-linejoin:round;stroke-dasharray:none;stroke-opacity:1"
       d="m 322.06747,42.633786 c 0.21462,-0.289646 3.44621,-2.54331 3.44621,-2.54331"
       id="path28" /><path
       style="fill:none;stroke:#f2cd4a;stroke-width:3;stroke-linecap:round;stroke-linejoin:round;stroke-dasharray:none;stroke-opacity:1"
       d="m 318.67328,35.407198 6.3063,-0.432788"
       id="path29" /><path
       style="fill:none;stroke:#f2cd4a;stroke-width:3;stroke-linecap:round;stroke-linejoin:round;stroke-dasharray:none;stroke-opacity:1"
       d="m 321.36578,27.172279 5.0012,1.975145"
       id="path30" /><path
       style="fill:none;stroke:#438cff;stroke-width:2.58911;stroke-linecap:round;stroke-linejoin:round;stroke-dasharray:none;stroke-opacity:1;fill-opacity:1"
       d="m 381.67049,37.210113 c -0.28685,0.09801 -3.55474,0.04008 -3.55474,0.04008"
       id="path31" /><path
       style="fill:none;stroke:#438cff;stroke-width:2.58911;stroke-linecap:round;stroke-linejoin:round;stroke-dasharray:none;stroke-opacity:1;fill-opacity:1"
       d="m 382.25876,44.336091 -4.73128,-2.440644"
       id="path32" /><path
       style="fill:none;stroke:#438cff;stroke-width:2.58911;stroke-linecap:round;stroke-linejoin:round;stroke-dasharray:none;stroke-opacity:1;fill-opacity:1"
       d="m 376.96562,48.972646 -2.80951,-3.750927"
       id="path33" /><path
       style="fill:#f35651;fill-opacity:1;stroke:#1a1a1a;stroke-width:3;stroke-linecap:round;stroke-linejoin:round;stroke-dasharray:none;stroke-opacity:1"
       d="m 338.86011,16.371859 c -18.72732,22.234997 -0.68549,33.140677 15.00682,32.582228 21.31817,-0.758658 22.10608,-22.150837 10.29182,-33.391587 -3.19873,-0.0529 -4.8654,1.426269 -5,4.4375 12.61583,12.279314 2.31197,20.534228 -7.39153,21.038059 -16.87991,0.876449 -12.87365,-16.477449 -8.10847,-22.062646 0.0291,-1.914827 -2.35287,-2.810047 -4.79864,-2.603554 z"
       id="path34"
       sodipodi:nodetypes="csccscc" /><path
       style="fill:#f35651;fill-opacity:1;stroke:#1a1a1a;stroke-width:3;stroke-linecap:round;stroke-linejoin:round;stroke-dasharray:none;stroke-opacity:1"
       d="m 348.2653,30.173162 c 0.81135,4.589413 6.19183,2.008872 5.96621,-0.265165 L 353.96635,8.9157644 c 0.40861,-2.3476309 -5.29702,-2.1226604 -5.3475,0.2209709 z"
       id="path35"
       sodipodi:nodetypes="ccccc" /></g></svg>
